# AST/ASF file generated using VICON BodyLanguage
# -----------------------------------------------
:version 1.10
:name VICON
:units
  mass 1.0
  length 0.45
  angle deg
:documentation
   .ast/.asf automatically generated from VICON data using
   VICON BodyBuilder and BodyLanguage model FoxedUp or BRILLIANT.MOD
:root
   order TX TY TZ RX RY RZ
   axis XYZ
   position 0 0 0  
   orientation 0 0 0 
:bonedata
  begin
     id 1 
     name lhipjoint
     direction 0.635376 -0.686425 0.353719 
     length 2.47244 
     axis 0 0 0  XYZ
  end
  begin
     id 2 
     name lfemur
     direction 0.34202 -0.939693 0  
     length 7.25268  
     axis 0 0 20  XYZ
    dof rx ry rz
    limits (-160.0 20.0)
           (-70.0 70.0)
           (-60.0 70.0)
  end
  begin
     id 3 
     name ltibia
     direction 0.34202 -0.939693 0   
     length 7.6767   
     axis 0 0 20   XYZ
    dof rx
    limits (-10.0 170.0)
  end
  begin
     id 4 
     name lfoot
     direction 0.0803374 -0.220725 0.972022   
     length 2.22945   
     axis -90 7.62852e-016 20   XYZ
    dof rx rz
    limits (-45.0 90.0)
           (-70.0 20.0)
  end
  begin
     id 5 
     name ltoes
     direction 1.53579e-011 -4.21994e-011 1   
     length 1.11848   
     axis -90 7.62852e-016 20   XYZ
    dof rx
    limits (-90.0 20.0)
  end
  begin
     id 6 
     name rhipjoint
     direction -0.664428 -0.664335 0.342336   
     length 2.55466  
     axis 0 0 0  XYZ 
  end
  begin
     id 7 
     name rfemur
     direction -0.34202 -0.939693 0   
     length 6.83172   
     axis 0 0 -20   XYZ
    dof rx ry rz
    limits (-160.0 20.0)
           (-70.0 70.0)
           (-70.0 60.0)
  end
  begin
     id 8 
     name rtibia
     direction -0.34202 -0.939693 0   
     length 7.62692   
     axis 0 0 -20   XYZ
    dof rx
    limits (-10.0 170.0)
 end
 begin
     id 9 
     name rfoot
     direction -0.0949276 -0.260811 0.960711   
     length 2.19684  
     axis -90 -7.62852e-016 -20   XYZ
    dof rx rz
    limits (-45.0 90.0)
           (-20.0 70.0)
  end
  begin
     id 10 
     name rtoes
     direction -1.53543e-011 -4.2183e-011 1   
     length 1.09848   
     axis -90 -7.62852e-016 -20   XYZ
    dof rx
    limits (-90.0 20.0)
  end
  begin
     id 11 
     name lowerback
     direction 0.0118782 0.999815 -0.0151555   
     length 2.15772   
     axis 0 0 0   XYZ
    dof rx ry rz
    limits (-20.0 45.0)
           (-30.0 30.0)
           (-30.0 30.0)
  end
  begin
     id 12 
     name upperback
     direction 0.00130825 0.999065 0.0432113   
     length 2.14863   
     axis 0 0 0   XYZ
    dof rx ry rz
    limits (-20.0 45.0)
           (-30.0 30.0)
           (-30.0 30.0)
  end
  begin
     id 13 
     name thorax
     direction -0.00347005 0.998773 0.0494011   
     length 2.14936   
     axis 0 0 0   XYZ
    dof rx ry rz
    limits (-20.0 45.0)
           (-30.0 30.0)
           (-30.0 30.0)
  end
  begin
     id 14 
     name lowerneck
     direction -0.0262159 0.99424 0.103921   
     length 1.69373   
     axis 0 0 0   XYZ
    dof rx ry rz
    limits (-20.0 45.0)
           (-30.0 30.0)
           (-30.0 30.0)
  end
  begin
     id 15 
     name upperneck
     direction 0.0353511 0.977394 -0.20845   
     length 1.70857   
     axis 0 0 0   XYZ
    dof rx ry rz
    limits (-20.0 45.0)
           (-30.0 30.0)
           (-30.0 30.0)
  end
  begin
     id 16
     name head
     direction 0.0139214 0.996594 -0.0812836  
     length 1.72777  
     axis 0 0 0   XYZ
    dof rx ry rz
    limits (-20.0 45.0)
           (-30.0 30.0)
           (-30.0 30.0)
  end
  begin
     id 17 
     name lclavicle
     direction 0.841247 0.537205 -0.0609508  
     length 3.55371  
     axis 0 0 0   XYZ
    dof ry rz
    limits (-20.0 10.0)
           (0.0 20.0)
  end
  begin
     id 18 
     name lhumerus
     direction 1 -4.48964e-011 1.60116e-018   
     length 4.91377   
     axis -180 -30 -90   XYZ
    dof rx ry rz
    limits (-60.0 90.0)
           (-90.0 90.0)
           (-90.0 90.0)
  end
  begin
     id 19
     name lradius
     direction 1 -4.48989e-011 -8.93847e-027   
     length 3.00291   
     axis -180 -30 -90   XYZ
    dof rx
    limits (-10.0 170.0)
  end
  begin
     id 20
     name lwrist
     direction 1 -4.48932e-011 -7.31504e-027   
     length 1.50145   
     axis 5.74121e-015 90 90   XYZ
    dof ry
    limits (-180.0 0.0)
 end
  begin
     id 21 
     name lhand
     direction 1 -4.48971e-011 -1.46301e-026   
     length 0.450922   
     axis 9.33524e-015 90 90   XYZ
    dof rx rz
    limits (-90.0 90.0)
           (-45.0 45.0)
  end
  begin
     id 22 
     name lfingers
     direction 1 -4.49039e-011 -2.92602e-026   
     length 0.363545   
     axis 1.86705e-014 90 90   XYZ
    dof rx
    limits (0.0 90.0)
  end
  begin
     id 23
     name lthumb
     direction 0.707107 -6.34941e-011 0.707107   
     length 0.52198   
     axis -90 45 2.85299e-015   XYZ
    dof rx rz
    limits (-45.0 45.0)
           (-45.0 45.0)
  end
  begin
     id 24 
     name rclavicle
     direction -0.825079 0.56158 -0.0622297   
     length 3.39909  
     axis 0 0 0   XYZ 
    dof ry rz
    limits (-10.0 20.0)
           (-20.0 0.0)
  end
  begin
     id 25 
     name rhumerus
     direction -1 -4.48965e-011 1.61691e-027  
     length 4.86725   
     axis -180 30 90   XYZ
    dof rx ry rz
    limits (-90.0 60.0)
           (-90.0 90.0)
           (-90.0 90.0)
  end
  begin
     id 26 
     name rradius
     direction -1 -4.48964e-011 -2.25776e-027   
     length 3.17144   
     axis -180 30 90   XYZ
    dof rx
    limits (-10.0 170.0)
  end
  begin
     id 27 
     name rwrist
     direction -1 -4.48961e-011 -7.31504e-027   
     length 1.58572   
     axis 5.74121e-015 -90 -90   XYZ
    dof ry
    limits (-180.0 0.0)
  end
  begin
     id 28
     name rhand
     direction -1 -4.49013e-011 -1.46301e-026   
     length 0.419368   
     axis 9.33524e-015 -90 -90   XYZ
    dof rx rz
    limits (-90.0 90.0)
           (-45.0 45.0)
  end
  begin
     id 29
     name rfingers
     direction -1 -4.489e-011 -2.92602e-026   
     length 0.338105   
     axis 1.86705e-014 -90 -90   XYZ
    dof rx
    limits (0.0 90.0)
  end
  begin
     id 30
     name rthumb
     direction -0.707107 -6.35022e-011 0.707107   
     length 0.485453   
     axis -90 -45 -2.85299e-015   XYZ
    dof rx rz
    limits (-45.0 45.0)
           (-45.0 45.0)
  end
:hierarchy
  begin
    root lhipjoint rhipjoint lowerback
    lhipjoint lfemur
    lfemur ltibia
    ltibia lfoot
    lfoot ltoes
    rhipjoint rfemur
    rfemur rtibia
    rtibia rfoot
    rfoot rtoes
    lowerback upperback
    upperback thorax
    thorax lowerneck lclavicle rclavicle
    lowerneck upperneck
    upperneck head
    lclavicle lhumerus
    lhumerus lradius
    lradius lwrist
    lwrist lhand lthumb
    lhand lfingers
    rclavicle rhumerus
    rhumerus rradius
    rradius rwrist
    rwrist rhand rthumb
    rhand rfingers
  end

#!OML:ASF H:\Swim 2\Project 1\Capture day 1\Session 1\male.ASF
:FULLY-SPECIFIED
:DEGREES
817
root 7.86428 10.1789 13.6558 109.162 -3.02448 1.98887
lowerback -16.4257 2.31116 -2.08961
upperback -7.59466 3.56612 -2.01759
thorax 1.122 1.87367 -0.331351
lowerneck -16.1282 -4.67448 -1.59086
upperneck 27.0734 -5.84628 -0.388519
head 11.5261 -2.74203 -0.702076
rclavicle -1.27222e-014 1.86858e-014
rhumerus 51.2073 -23.1018 -8.55939
rradius 26.5367
rwrist 2.86365
rhand -35.6825 -11.8547
rfingers 7.12502
rthumb -8.80345 -41.6511
lclavicle -1.27222e-014 1.86858e-014
lhumerus 77.2665 18.1368 56.3188
lradius 13.024
lwrist -17.9441
lhand -41.4004 -10.303
lfingers 7.12502
lthumb -14.3174 19.1834
rfemur -35.0582 -4.91895 20.5579
rtibia 76.2258
rfoot 27.5795 -0.72767
rtoes 12.7847
lfemur -33.663 -8.99402 -18.2442
ltibia 67.9765
lfoot 23.8013 -2.73677
ltoes 52.8336
818
root 7.86392 10.1767 13.6571 109.392 -3.0623 1.97186
lowerback -16.6284 2.37063 -2.36555
upperback -7.73887 3.6957 -1.95109
thorax 1.05141 1.95201 -0.0812665
lowerneck -15.9911 -4.86843 -1.8213
upperneck 26.5585 -6.1043 -0.191931
head 11.3198 -2.86261 -0.616683
rclavicle 3.18055e-014 5.06901e-015
rhumerus 49.5769 -22.6532 -8.35853
rradius 26.7647
rwrist 1.19472
rhand -35.1686 -13.5069
rfingers 7.12502
rthumb -8.30753 -43.3235
lclavicle 3.18055e-014 5.06901e-015
lhumerus 75.4372 17.9567 54.9933
lradius 13.3667
lwrist -15.4405
lhand -41.2447 -8.65267
lfingers 7.12502
lthumb -14.1674 20.8442
rfemur -34.8656 -4.23614 20.5641
rtibia 73.4761
rfoot 27.4414 -1.09964
rtoes 12.5749
lfemur -33.658 -9.65552 -18.0158
ltibia 65.218
lfoot 24.2879 -2.71639
ltoes 52.9521
819
root 7.86387 10.1724 13.6573 109.651 -3.09352 1.91967
lowerback -16.8786 2.46591 -2.68456
upperback -7.90397 3.88427 -1.88148
thorax 0.976762 2.06341 0.207814
lowerneck -15.7571 -5.09671 -2.01674
upperneck 26.0281 -6.4093 -0.0305599
head 11.0897 -3.00572 -0.553498
rclavicle -7.95139e-015 -4.77083e-015
rhumerus 47.8168 -22.0908 -8.0244
rradius 27.1162
rwrist -1.02647
rhand -34.733 -15.0892
rfingers 7.12502
rthumb -7.88711 -44.922
lclavicle -7.95139e-015 -4.77083e-015
lhumerus 73.5008 17.501 53.4213
lradius 13.8001
lwrist -12.5246
lhand -40.9511 -6.94662
lfingers 7.12502
lthumb -13.8845 22.5699
rfemur -34.6873 -3.50749 20.5467
rtibia 70.6214
rfoot 27.2629 -1.51081
rtoes 12.3733
lfemur -33.697 -10.3082 -17.766
ltibia 62.4334
lfoot 24.7873 -2.78468
ltoes 52.9332
820
root 7.86412 10.1661 13.6564 109.924 -3.11596 1.83964
lowerback -17.1674 2.59777 -3.04615
upperback -8.08386 4.13345 -1.80844
thorax 0.89775 2.20901 0.536259
lowerneck -15.4353 -5.35538 -2.15845
upperneck 25.4968 -6.74948 0.0532896
head 10.8407 -3.16949 -0.528532
rclavicle 5.56597e-014 -2.78299e-015
rhumerus 45.9072 -21.4053 -7.53992
rradius 27.6188
rwrist -3.84454
rhand -34.4484 -16.558
rfingers 7.12502
rthumb -7.61243 -46.401
lclavicle 5.56597e-014 -2.78299e-015
lhumerus 71.4756 16.7214 51.5253
lradius 14.3225
lwrist -9.10204
lhand -40.5297 -5.14959
lfingers 7.12502
lthumb -13.4784 24.3943
rfemur -34.5107 -2.74367 20.5065
rtibia 67.6655
rfoot 27.039 -1.96837
rtoes 12.1717
lfemur -33.7727 -10.9592 -17.4921
ltibia 59.6399
lfoot 25.2861 -2.91062
ltoes 52.8103
821
root 7.86456 10.1583 13.6547 110.182 -3.1313 1.74755
lowerback -17.4839 2.92649 -3.79708
upperback -8.39864 4.72112 -1.68569
thorax 0.633393 2.55193 1.18569
lowerneck -14.6469 -5.89571 -2.17805
upperneck 25.1974 -7.46062 -0.0564191
head 10.5806 -3.50709 -0.628394
rclavicle -3.18055e-015 2.14687e-014
rhumerus 42.9108 -20.1984 -5.80301
rradius 28.4964
rwrist -7.60976
rhand -34.2981 -17.9441
rfingers 7.12502
rthumb -7.46733 -47.7923
lclavicle -3.18055e-015 2.14687e-014
lhumerus 69.5608 14.9321 49.8254
lradius 14.9654
lwrist -5.13697
lhand -39.9835 -3.22157
lfingers 7.12502
lthumb -12.9519 26.3564
rfemur -34.3039 -1.95529 20.4397
rtibia 64.6117
rfoot 26.7611 -2.49921
rtoes 12.0229
lfemur -33.8632 -11.6282 -17.196
ltibia 56.8584
lfoot 25.757 -3.04804
ltoes 52.6443
822
root 7.86516 10.1494 13.6526 110.402 -3.144 1.65585
lowerback -17.7717 3.42234 -4.84037
upperback -8.82329 5.59316 -1.56
thorax 0.165906 3.06802 2.03336
lowerneck -13.5432 -6.67287 -2.01287
upperneck 25.0951 -8.48568 -0.379174
head 10.3158 -3.98975 -0.856923
rclavicle 1.59028e-014 -8.15017e-015
rhumerus 39.102 -18.5584 -3.29879
rradius 29.6796
rwrist -11.8984
rhand -34.236 -19.1966
rfingers 7.12502
rthumb -7.40734 -49.0469
lclavicle 1.59028e-014 -8.15017e-015
lhumerus 67.8455 12.1963 48.0835
lradius 15.7554
lwrist -0.467242
lhand -39.3681 -1.14587
lfingers 7.12502
lthumb -12.3585 28.4688
rfemur -34.0477 -1.14926 20.3451
rtibia 61.4691
rfoot 26.436 -3.1045
rtoes 11.8784
lfemur -33.9518 -12.3283 -16.8856
ltibia 54.1125
lfoot 26.1839 -3.15627
ltoes 52.4749
823
root 7.86593 10.1396 13.65 110.576 -3.15541 1.57212
lowerback -17.9963 4.08634 -6.12998
upperback -9.35395 6.74498 -1.47023
thorax -0.544019 3.76371 2.99298
lowerneck -12.1891 -7.70845 -1.65684
upperneck 25.1422 -9.86844 -0.821736
head 10.0365 -4.62538 -1.17736
rclavicle -9.54166e-015 -9.54166e-015
rhumerus 34.5823 -16.4899 -0.266183
rradius 31.128
rwrist -16.3721
rhand -34.1945 -20.2688
rfingers 7.12502
rthumb -7.3673 -50.1205
lclavicle -9.54166e-015 -9.54166e-015
lhumerus 66.4926 8.52869 46.3259
lradius 16.7607
lwrist 4.88935
lhand -38.7597 1.02232
lfingers 7.12502
lthumb -11.7719 30.6715
rfemur -33.7403 -0.314722 20.2218
rtibia 58.2517
rfoot 26.0935 -3.7881
rtoes 11.6907
lfemur -34.0399 -13.064 -16.5621
ltibia 51.4288
lfoot 26.5568 -3.15792
ltoes 52.4051
824
root 7.8668 10.1292 13.6468 110.682 -3.1729 1.50657
lowerback -18.1188 4.82789 -7.51523
upperback -9.92515 8.02344 -1.43081
thorax -1.44114 4.55734 3.92221
lowerneck -10.8228 -8.88193 -1.10842
upperneck 25.2273 -11.4368 -1.36469
head 9.73817 -5.33618 -1.55786
rclavicle 6.36111e-015 2.94201e-014
rhumerus 29.8604 -14.2132 2.66425
rradius 32.7126
rwrist -20.5321
rhand -34.0608 -21.1248
rfingers 7.12502
rthumb -7.2383 -50.981
lclavicle 6.36111e-015 2.94201e-014
lhumerus 65.53 4.31494 44.4464
lradius 18.0486
lwrist 10.7985
lhand -38.282 3.16247
lfingers 7.12502
lthumb -11.3112 32.8375
rfemur -33.3674 0.545986 20.0633
rtibia 54.9804
rfoot 25.7645 -4.54428
rtoes 11.4485
lfemur -34.1133 -13.8366 -16.2402
ltibia 48.837
lfoot 26.8585 -3.04359
ltoes 52.4255
825
root 7.86793 10.1174 13.643 110.767 -3.18988 1.43171
lowerback -18.2137 5.48498 -8.76286
upperback -10.4347 9.16723 -1.41109
thorax -2.31634 5.28946 4.70064
lowerneck -9.70669 -9.9463 -0.462414
upperneck 25.1938 -12.8442 -1.9655
head 9.41804 -5.976 -1.93529
rclavicle 7.95139e-014 2.70347e-014
rhumerus 25.6641 -12.0609 4.84889
rradius 34.2991
rwrist -24.1152
rhand -33.7903 -21.7404
rfingers 7.12502
rthumb -6.97712 -51.6054
lclavicle 7.95139e-014 2.70347e-014
lhumerus 64.7561 0.230053 42.2584
lradius 19.6767
lwrist 17.0421
lhand -38.0098 5.13375
lfingers 7.12502
lthumb -11.0487 34.8229
rfemur -32.993 1.47025 19.8654
rtibia 51.6831
rfoot 25.4825 -5.33179
rtoes 11.1592
lfemur -34.2203 -14.5981 -15.9187
ltibia 46.3673
lfoot 27.0575 -2.83905
ltoes 52.4615
826
root 7.86939 10.1042 13.6379 110.827 -3.20902 1.34921
lowerback -18.2919 5.92284 -9.67067
upperback -10.7892 9.94988 -1.37169
thorax -2.96848 5.80802 5.26548
lowerneck -8.96409 -10.6763 0.111285
upperneck 24.9289 -13.7881 -2.52789
head 9.08617 -6.41971 -2.23374
rclavicle -6.04305e-014 3.18055e-015
rhumerus 22.5328 -10.3671 5.88289
rradius 35.7896
rwrist -26.9602
rhand -33.3513 -22.11
rfingers 7.12502
rthumb -6.55339 -51.9886
lclavicle -6.04305e-014 3.18055e-015
lhumerus 63.8674 -3.16518 39.7554
lradius 21.6807
lwrist 23.3214
lhand -38.016 6.77657
lfingers 7.12502
lthumb -11.0547 36.4654
rfemur -32.6235 2.46122 19.6206
rtibia 48.3908
rfoot 25.246 -6.12639
rtoes 10.886
lfemur -34.3615 -15.3335 -15.608
ltibia 44.0506
lfoot 27.1249 -2.57136
ltoes 52.4718
827
root 7.8712 10.0897 13.6309 110.858 -3.23019 1.25951
lowerback -18.3487 6.11884 -10.1767
upperback -10.975 10.3224 -1.30376
thorax -3.32568 6.06828 5.61703
lowerneck -8.52417 -11.0152 0.49706
upperneck 24.3746 -14.2105 -2.93554
head 8.7407 -6.64185 -2.40216
rclavicle 7.63333e-014 -2.70347e-014
rhumerus 20.5189 -9.14542 5.83976
rradius 37.1899
rwrist -29.1904
rhand -32.7806 -22.2333
rfingers 7.12502
rthumb -6.00241 -52.1283
lclavicle 7.63333e-014 -2.70347e-014
lhumerus 62.6649 -5.73789 37.126
lradius 24.0552
lwrist 29.3939
lhand -38.2438 7.97844
lfingers 7.12502
lthumb -11.2744 37.6554
rfemur -32.2695 3.51878 19.3258
rtibia 45.1373
rfoot 25.001 -6.86473
rtoes 10.6827
lfemur -34.5389 -16.017 -15.3202
ltibia 41.9152
lfoot 27.0373 -2.3069
ltoes 52.3477
828
root 7.87343 10.0737 13.6219 110.856 -3.25363 1.16432
lowerback -18.372 6.04421 -10.1875
upperback -10.9685 10.2217 -1.2113
thorax -3.31069 6.01843 5.71499
lowerneck -8.37928 -10.8951 0.580466
upperneck 23.4962 -14.031 -3.08982
head 8.39739 -6.60436 -2.39751
rclavicle -1.24042e-013 -4.77083e-014
rhumerus 19.7626 -8.44575 4.65635
rradius 38.4879
rwrist -30.8728
rhand -32.1338 -22.0724
rfingers 7.12502
rthumb -5.37796 -51.9841
lclavicle -1.24042e-013 -4.77083e-014
lhumerus 60.7688 -7.45723 34.0793
lradius 27.1495
lwrist 35.4515
lhand -38.721 8.81039
lfingers 7.12502
lthumb -11.7347 38.4617
rfemur -31.9375 4.63084 18.983
rtibia 41.9577
rfoot 24.7151 -7.49776
rtoes 10.5769
lfemur -34.7488 -16.622 -15.0721
ltibia 39.9884
lfoot 26.7998 -2.14094
ltoes 51.8902
829
root 7.8761 10.0562 13.6104 110.822 -3.2722 1.06639
lowerback -18.3969 5.96633 -10.1703
upperback -10.943 10.1115 -1.11278
thorax -3.2672 5.95925 5.80651
lowerneck -8.21646 -10.7663 0.625004
upperneck 22.6171 -13.8477 -3.19064
head 8.06294 -6.56028 -2.36998
rclavicle -1.43125e-013 -4.13472e-014
rhumerus 19.0705 -7.64204 3.43667
rradius 39.9219
rwrist -32.3101
rhand -31.4166 -21.6792
rfingers 7.12502
rthumb -4.68546 -51.6074
lclavicle -1.43125e-013 -4.13472e-014
lhumerus 58.9742 -9.02395 31.9238
lradius 30.255
lwrist 40.7498
lhand -39.2182 8.90437
lfingers 7.12502
lthumb -12.214 38.5277
rfemur -31.6405 5.78352 18.6025
rtibia 38.8929
rfoot 24.3151 -8.02493
rtoes 10.6977
lfemur -34.9933 -17.1161 -14.8755
ltibia 38.289
lfoot 26.3121 -2.15899
ltoes 51.1741
